<mxfile host="app.diagrams.net" modified="2023-12-10T14:37:47.007Z" agent="Mozilla/5.0 (Windows NT 10.0; Win64; x64) AppleWebKit/537.36 (KHTML, like Gecko) Chrome/118.0.0.0 Safari/537.36 OPR/104.0.0.0" etag="l9ois20GDPk3gknW2V5L" version="22.1.7" type="github">
  <diagram name="Page-1" id="XBS1e0gE74p3TgdVKRU-">
    <mxGraphModel dx="2370" dy="1902" grid="1" gridSize="10" guides="1" tooltips="1" connect="1" arrows="1" fold="1" page="1" pageScale="1" pageWidth="850" pageHeight="1100" math="0" shadow="0">
      <root>
        <mxCell id="0" />
        <mxCell id="1" parent="0" />
        <mxCell id="N7wMIVFWoXXr4h1JqkPB-3" value="&lt;font style=&quot;font-size: 18px;&quot;&gt;Course&lt;/font&gt;" style="swimlane;whiteSpace=wrap;html=1;startSize=23;" vertex="1" parent="1">
          <mxGeometry x="-300" y="-600" width="200" height="180" as="geometry" />
        </mxCell>
        <mxCell id="N7wMIVFWoXXr4h1JqkPB-4" value="&lt;font style=&quot;font-size: 18px;&quot;&gt;CourseID {PK}&lt;br&gt;Title&lt;br&gt;Units&lt;br&gt;Level&lt;br&gt;Subject&lt;/font&gt;" style="text;html=1;strokeColor=none;fillColor=none;align=center;verticalAlign=middle;whiteSpace=wrap;rounded=0;" vertex="1" parent="N7wMIVFWoXXr4h1JqkPB-3">
          <mxGeometry x="10" y="40" width="180" height="110" as="geometry" />
        </mxCell>
        <mxCell id="N7wMIVFWoXXr4h1JqkPB-5" value="&lt;font style=&quot;font-size: 18px;&quot;&gt;Student&lt;/font&gt;" style="swimlane;whiteSpace=wrap;html=1;" vertex="1" parent="1">
          <mxGeometry x="-315" y="-980" width="230" height="210" as="geometry" />
        </mxCell>
        <mxCell id="N7wMIVFWoXXr4h1JqkPB-6" value="&lt;font style=&quot;font-size: 18px;&quot;&gt;StudentID {PK}&lt;br&gt;StudentName&lt;br&gt;StudentAdress&lt;br&gt;&amp;nbsp; &amp;nbsp; &amp;nbsp; &amp;nbsp; Country&lt;br&gt;&amp;nbsp; &amp;nbsp;City&lt;br&gt;&amp;nbsp; &amp;nbsp; &amp;nbsp; &amp;nbsp;Street&lt;br&gt;Email &amp;lt;1..*&amp;gt;&lt;br&gt;Date_of_birth&lt;/font&gt;" style="text;html=1;strokeColor=none;fillColor=none;align=center;verticalAlign=middle;whiteSpace=wrap;rounded=0;" vertex="1" parent="N7wMIVFWoXXr4h1JqkPB-5">
          <mxGeometry y="30" width="230" height="180" as="geometry" />
        </mxCell>
        <mxCell id="N7wMIVFWoXXr4h1JqkPB-7" value="&lt;font style=&quot;font-size: 18px;&quot;&gt;Training-Period&lt;/font&gt;" style="swimlane;whiteSpace=wrap;html=1;startSize=23;" vertex="1" parent="1">
          <mxGeometry x="290" y="-970" width="210" height="160" as="geometry" />
        </mxCell>
        <mxCell id="N7wMIVFWoXXr4h1JqkPB-8" value="&lt;font style=&quot;font-size: 18px;&quot;&gt;PeriodID {PK}&lt;br&gt;Start-Date&lt;br&gt;End-Date&lt;/font&gt;" style="text;html=1;strokeColor=none;fillColor=none;align=center;verticalAlign=middle;whiteSpace=wrap;rounded=0;" vertex="1" parent="N7wMIVFWoXXr4h1JqkPB-7">
          <mxGeometry y="20" width="210" height="140" as="geometry" />
        </mxCell>
        <mxCell id="N7wMIVFWoXXr4h1JqkPB-26" value="" style="triangle;whiteSpace=wrap;html=1;direction=north;" vertex="1" parent="1">
          <mxGeometry x="382.5" y="-410" width="60" height="40" as="geometry" />
        </mxCell>
        <mxCell id="N7wMIVFWoXXr4h1JqkPB-27" value="" style="endArrow=none;html=1;rounded=0;" edge="1" parent="1">
          <mxGeometry width="50" height="50" relative="1" as="geometry">
            <mxPoint x="412.5" y="-320" as="sourcePoint" />
            <mxPoint x="412.5" y="-370" as="targetPoint" />
            <Array as="points">
              <mxPoint x="412.5" y="-350" />
            </Array>
          </mxGeometry>
        </mxCell>
        <mxCell id="N7wMIVFWoXXr4h1JqkPB-33" style="edgeStyle=orthogonalEdgeStyle;rounded=0;orthogonalLoop=1;jettySize=auto;html=1;exitX=0;exitY=0.5;exitDx=0;exitDy=0;" edge="1" parent="1">
          <mxGeometry relative="1" as="geometry">
            <mxPoint x="492.5" y="-130" as="targetPoint" />
            <mxPoint x="492.5" y="-120" as="sourcePoint" />
          </mxGeometry>
        </mxCell>
        <mxCell id="N7wMIVFWoXXr4h1JqkPB-35" value="FullTime-instructors" style="swimlane;whiteSpace=wrap;html=1;startSize=23;" vertex="1" parent="1">
          <mxGeometry x="250" y="-250" width="160" height="90" as="geometry" />
        </mxCell>
        <mxCell id="N7wMIVFWoXXr4h1JqkPB-36" value="&lt;font style=&quot;font-size: 18px;&quot;&gt;Monthly-Salary&lt;/font&gt;" style="text;html=1;strokeColor=none;fillColor=none;align=center;verticalAlign=middle;whiteSpace=wrap;rounded=0;" vertex="1" parent="N7wMIVFWoXXr4h1JqkPB-35">
          <mxGeometry y="30" width="150" height="50" as="geometry" />
        </mxCell>
        <mxCell id="N7wMIVFWoXXr4h1JqkPB-38" value="PartTime-instructors" style="swimlane;whiteSpace=wrap;html=1;" vertex="1" parent="1">
          <mxGeometry x="450" y="-250" width="160" height="90" as="geometry" />
        </mxCell>
        <mxCell id="N7wMIVFWoXXr4h1JqkPB-39" value="&lt;font style=&quot;font-size: 18px;&quot;&gt;HourlyRate&lt;br&gt;HoursWorked&lt;/font&gt;" style="text;html=1;strokeColor=none;fillColor=none;align=center;verticalAlign=middle;whiteSpace=wrap;rounded=0;" vertex="1" parent="N7wMIVFWoXXr4h1JqkPB-38">
          <mxGeometry y="30" width="160" height="50" as="geometry" />
        </mxCell>
        <mxCell id="N7wMIVFWoXXr4h1JqkPB-40" value="&lt;font style=&quot;font-size: 18px;&quot;&gt;{Mandatory , And}&lt;/font&gt;" style="text;html=1;strokeColor=none;fillColor=none;align=center;verticalAlign=middle;whiteSpace=wrap;rounded=0;" vertex="1" parent="1">
          <mxGeometry x="630" y="-500" width="160" height="30" as="geometry" />
        </mxCell>
        <mxCell id="N7wMIVFWoXXr4h1JqkPB-41" value="&lt;font style=&quot;font-size: 18px;&quot;&gt;Instructor&lt;/font&gt;" style="swimlane;whiteSpace=wrap;html=1;startSize=23;" vertex="1" parent="1">
          <mxGeometry x="297.5" y="-600" width="222.5" height="190" as="geometry" />
        </mxCell>
        <mxCell id="N7wMIVFWoXXr4h1JqkPB-42" value="&lt;font style=&quot;font-size: 14px;&quot;&gt;Instructor-Id {PK}&lt;br&gt;Name&lt;br&gt;MobilePhone&lt;br&gt;Email&lt;br&gt;Address&lt;br&gt;&amp;nbsp; &amp;nbsp; &amp;nbsp; &amp;nbsp; &amp;nbsp; Country&lt;br&gt;&amp;nbsp; &amp;nbsp; City&lt;br&gt;&amp;nbsp; &amp;nbsp; &amp;nbsp; &amp;nbsp;Street&lt;br&gt;Specialty&lt;/font&gt;" style="text;html=1;strokeColor=none;fillColor=none;align=center;verticalAlign=middle;whiteSpace=wrap;rounded=0;" vertex="1" parent="N7wMIVFWoXXr4h1JqkPB-41">
          <mxGeometry x="10" y="25" width="200" height="165" as="geometry" />
        </mxCell>
        <mxCell id="N7wMIVFWoXXr4h1JqkPB-45" value="" style="endArrow=none;html=1;rounded=0;" edge="1" parent="1">
          <mxGeometry width="50" height="50" relative="1" as="geometry">
            <mxPoint x="-100" y="-520" as="sourcePoint" />
            <mxPoint x="300" y="-520" as="targetPoint" />
          </mxGeometry>
        </mxCell>
        <mxCell id="N7wMIVFWoXXr4h1JqkPB-46" value="&lt;font style=&quot;font-size: 36px;&quot;&gt;*&lt;/font&gt;" style="text;html=1;strokeColor=none;fillColor=none;align=center;verticalAlign=middle;whiteSpace=wrap;rounded=0;" vertex="1" parent="1">
          <mxGeometry x="-100" y="-580" width="80" height="45" as="geometry" />
        </mxCell>
        <mxCell id="N7wMIVFWoXXr4h1JqkPB-47" value="&lt;font style=&quot;font-size: 36px;&quot;&gt;*&lt;/font&gt;" style="text;html=1;strokeColor=none;fillColor=none;align=center;verticalAlign=middle;whiteSpace=wrap;rounded=0;" vertex="1" parent="1">
          <mxGeometry x="210" y="-580" width="80" height="40" as="geometry" />
        </mxCell>
        <mxCell id="N7wMIVFWoXXr4h1JqkPB-49" value="&lt;font style=&quot;font-size: 18px;&quot;&gt;Has&lt;/font&gt;" style="text;html=1;strokeColor=none;fillColor=none;align=center;verticalAlign=middle;whiteSpace=wrap;rounded=0;" vertex="1" parent="1">
          <mxGeometry x="90" y="-572.5" width="60" height="30" as="geometry" />
        </mxCell>
        <mxCell id="N7wMIVFWoXXr4h1JqkPB-52" value="" style="endArrow=none;html=1;rounded=0;entryX=1;entryY=1;entryDx=0;entryDy=0;exitX=0;exitY=0;exitDx=0;exitDy=0;" edge="1" parent="1" source="N7wMIVFWoXXr4h1JqkPB-41" target="N7wMIVFWoXXr4h1JqkPB-6">
          <mxGeometry width="50" height="50" relative="1" as="geometry">
            <mxPoint x="320" y="-690" as="sourcePoint" />
            <mxPoint x="370" y="-740" as="targetPoint" />
          </mxGeometry>
        </mxCell>
        <mxCell id="N7wMIVFWoXXr4h1JqkPB-53" value="&lt;font style=&quot;font-size: 36px;&quot;&gt;*&lt;/font&gt;" style="text;html=1;strokeColor=none;fillColor=none;align=center;verticalAlign=middle;whiteSpace=wrap;rounded=0;" vertex="1" parent="1">
          <mxGeometry x="-85" y="-810" width="80" height="45" as="geometry" />
        </mxCell>
        <mxCell id="N7wMIVFWoXXr4h1JqkPB-54" value="&lt;font style=&quot;font-size: 36px;&quot;&gt;*&lt;/font&gt;" style="text;html=1;strokeColor=none;fillColor=none;align=center;verticalAlign=middle;whiteSpace=wrap;rounded=0;" vertex="1" parent="1">
          <mxGeometry x="240" y="-660" width="80" height="45" as="geometry" />
        </mxCell>
        <mxCell id="N7wMIVFWoXXr4h1JqkPB-55" value="&lt;font style=&quot;font-size: 18px;&quot;&gt;Manage&lt;/font&gt;" style="text;html=1;strokeColor=none;fillColor=none;align=center;verticalAlign=middle;whiteSpace=wrap;rounded=0;rotation=20;" vertex="1" parent="1">
          <mxGeometry x="140" y="-700" width="60" height="30" as="geometry" />
        </mxCell>
        <mxCell id="N7wMIVFWoXXr4h1JqkPB-67" value="" style="shape=flexArrow;endArrow=classic;html=1;rounded=0;" edge="1" parent="1">
          <mxGeometry width="50" height="50" relative="1" as="geometry">
            <mxPoint x="80" y="-555" as="sourcePoint" />
            <mxPoint x="50" y="-555" as="targetPoint" />
          </mxGeometry>
        </mxCell>
        <mxCell id="N7wMIVFWoXXr4h1JqkPB-71" value="" style="shape=flexArrow;endArrow=classic;html=1;rounded=0;" edge="1" parent="1">
          <mxGeometry width="50" height="50" relative="1" as="geometry">
            <mxPoint x="130" y="-700" as="sourcePoint" />
            <mxPoint x="100" y="-710" as="targetPoint" />
          </mxGeometry>
        </mxCell>
        <mxCell id="N7wMIVFWoXXr4h1JqkPB-72" value="" style="endArrow=none;html=1;rounded=0;entryX=0.5;entryY=1;entryDx=0;entryDy=0;exitX=0.5;exitY=0;exitDx=0;exitDy=0;" edge="1" parent="1" source="N7wMIVFWoXXr4h1JqkPB-3" target="N7wMIVFWoXXr4h1JqkPB-6">
          <mxGeometry width="50" height="50" relative="1" as="geometry">
            <mxPoint x="-250" y="-630" as="sourcePoint" />
            <mxPoint x="-200" y="-680" as="targetPoint" />
          </mxGeometry>
        </mxCell>
        <mxCell id="N7wMIVFWoXXr4h1JqkPB-73" value="&lt;font style=&quot;font-size: 36px;&quot;&gt;*&lt;/font&gt;" style="text;html=1;strokeColor=none;fillColor=none;align=center;verticalAlign=middle;whiteSpace=wrap;rounded=0;" vertex="1" parent="1">
          <mxGeometry x="-210" y="-765" width="80" height="45" as="geometry" />
        </mxCell>
        <mxCell id="N7wMIVFWoXXr4h1JqkPB-74" value="&lt;font style=&quot;font-size: 36px;&quot;&gt;*&lt;/font&gt;" style="text;html=1;strokeColor=none;fillColor=none;align=center;verticalAlign=middle;whiteSpace=wrap;rounded=0;" vertex="1" parent="1">
          <mxGeometry x="-210" y="-630" width="80" height="45" as="geometry" />
        </mxCell>
        <mxCell id="N7wMIVFWoXXr4h1JqkPB-75" value="&lt;font style=&quot;font-size: 18px;&quot;&gt;Has&lt;/font&gt;" style="text;html=1;strokeColor=none;fillColor=none;align=center;verticalAlign=middle;whiteSpace=wrap;rounded=0;" vertex="1" parent="1">
          <mxGeometry x="-210" y="-660" width="60" height="30" as="geometry" />
        </mxCell>
        <mxCell id="N7wMIVFWoXXr4h1JqkPB-76" value="" style="shape=flexArrow;endArrow=classic;html=1;rounded=0;endWidth=17.647058823529413;endSize=7.223529411764706;" edge="1" parent="1">
          <mxGeometry width="50" height="50" relative="1" as="geometry">
            <mxPoint x="-180" y="-660" as="sourcePoint" />
            <mxPoint x="-180" y="-690" as="targetPoint" />
          </mxGeometry>
        </mxCell>
        <mxCell id="N7wMIVFWoXXr4h1JqkPB-80" value="" style="endArrow=none;html=1;rounded=0;entryX=0.5;entryY=1;entryDx=0;entryDy=0;exitX=0.442;exitY=-0.016;exitDx=0;exitDy=0;exitPerimeter=0;" edge="1" parent="1" source="N7wMIVFWoXXr4h1JqkPB-41" target="N7wMIVFWoXXr4h1JqkPB-8">
          <mxGeometry width="50" height="50" relative="1" as="geometry">
            <mxPoint x="395" y="-610" as="sourcePoint" />
            <mxPoint x="430" y="-730" as="targetPoint" />
          </mxGeometry>
        </mxCell>
        <mxCell id="N7wMIVFWoXXr4h1JqkPB-81" value="&lt;font style=&quot;font-size: 36px;&quot;&gt;*&lt;/font&gt;" style="text;html=1;strokeColor=none;fillColor=none;align=center;verticalAlign=middle;whiteSpace=wrap;rounded=0;" vertex="1" parent="1">
          <mxGeometry x="410" y="-800" width="80" height="45" as="geometry" />
        </mxCell>
        <mxCell id="N7wMIVFWoXXr4h1JqkPB-82" value="&lt;font style=&quot;font-size: 36px;&quot;&gt;*&lt;/font&gt;" style="text;html=1;strokeColor=none;fillColor=none;align=center;verticalAlign=middle;whiteSpace=wrap;rounded=0;" vertex="1" parent="1">
          <mxGeometry x="410" y="-630" width="80" height="45" as="geometry" />
        </mxCell>
        <mxCell id="N7wMIVFWoXXr4h1JqkPB-83" value="&lt;font style=&quot;font-size: 18px;&quot;&gt;Instructs in&lt;/font&gt;" style="text;html=1;strokeColor=none;fillColor=none;align=center;verticalAlign=middle;whiteSpace=wrap;rounded=0;" vertex="1" parent="1">
          <mxGeometry x="410" y="-680" width="90" height="30" as="geometry" />
        </mxCell>
        <mxCell id="N7wMIVFWoXXr4h1JqkPB-85" value="" style="shape=flexArrow;endArrow=classic;html=1;rounded=0;" edge="1" parent="1">
          <mxGeometry width="50" height="50" relative="1" as="geometry">
            <mxPoint x="460" y="-690" as="sourcePoint" />
            <mxPoint x="460" y="-720" as="targetPoint" />
          </mxGeometry>
        </mxCell>
        <mxCell id="N7wMIVFWoXXr4h1JqkPB-86" value="" style="endArrow=none;html=1;rounded=0;exitX=1;exitY=0;exitDx=0;exitDy=0;" edge="1" parent="1" source="N7wMIVFWoXXr4h1JqkPB-3">
          <mxGeometry width="50" height="50" relative="1" as="geometry">
            <mxPoint x="240" y="-890" as="sourcePoint" />
            <mxPoint x="290" y="-940" as="targetPoint" />
          </mxGeometry>
        </mxCell>
        <mxCell id="N7wMIVFWoXXr4h1JqkPB-87" value="&lt;font style=&quot;font-size: 36px;&quot;&gt;*&lt;/font&gt;" style="text;html=1;strokeColor=none;fillColor=none;align=center;verticalAlign=middle;whiteSpace=wrap;rounded=0;" vertex="1" parent="1">
          <mxGeometry x="210" y="-950" width="80" height="45" as="geometry" />
        </mxCell>
        <mxCell id="N7wMIVFWoXXr4h1JqkPB-88" value="&lt;font style=&quot;font-size: 36px;&quot;&gt;*&lt;/font&gt;" style="text;html=1;strokeColor=none;fillColor=none;align=center;verticalAlign=middle;whiteSpace=wrap;rounded=0;" vertex="1" parent="1">
          <mxGeometry x="-130" y="-650" width="80" height="45" as="geometry" />
        </mxCell>
        <mxCell id="N7wMIVFWoXXr4h1JqkPB-89" value="&lt;font style=&quot;font-size: 18px;&quot;&gt;Part of&lt;/font&gt;" style="text;html=1;strokeColor=none;fillColor=none;align=center;verticalAlign=middle;whiteSpace=wrap;rounded=0;rotation=-40;" vertex="1" parent="1">
          <mxGeometry x="20" y="-802.5" width="85" height="30" as="geometry" />
        </mxCell>
        <mxCell id="N7wMIVFWoXXr4h1JqkPB-90" value="" style="shape=flexArrow;endArrow=classic;html=1;rounded=0;" edge="1" parent="1">
          <mxGeometry width="50" height="50" relative="1" as="geometry">
            <mxPoint x="100" y="-820" as="sourcePoint" />
            <mxPoint x="130" y="-840" as="targetPoint" />
          </mxGeometry>
        </mxCell>
        <mxCell id="N7wMIVFWoXXr4h1JqkPB-91" value="" style="endArrow=none;html=1;rounded=0;entryX=0;entryY=0;entryDx=0;entryDy=0;" edge="1" parent="1" target="N7wMIVFWoXXr4h1JqkPB-8">
          <mxGeometry width="50" height="50" relative="1" as="geometry">
            <mxPoint x="-90" y="-950" as="sourcePoint" />
            <mxPoint x="-40" y="-1000" as="targetPoint" />
          </mxGeometry>
        </mxCell>
        <mxCell id="N7wMIVFWoXXr4h1JqkPB-92" value="&lt;font style=&quot;font-size: 36px;&quot;&gt;*&lt;/font&gt;" style="text;html=1;strokeColor=none;fillColor=none;align=center;verticalAlign=middle;whiteSpace=wrap;rounded=0;" vertex="1" parent="1">
          <mxGeometry x="-100" y="-980" width="80" height="45" as="geometry" />
        </mxCell>
        <mxCell id="N7wMIVFWoXXr4h1JqkPB-93" value="&lt;font style=&quot;font-size: 36px;&quot;&gt;*&lt;/font&gt;" style="text;html=1;strokeColor=none;fillColor=none;align=center;verticalAlign=middle;whiteSpace=wrap;rounded=0;" vertex="1" parent="1">
          <mxGeometry x="210" y="-980" width="80" height="45" as="geometry" />
        </mxCell>
        <mxCell id="N7wMIVFWoXXr4h1JqkPB-94" value="&lt;br&gt;&lt;font style=&quot;font-size: 18px;&quot;&gt;Participate in&lt;/font&gt;" style="text;html=1;strokeColor=none;fillColor=none;align=center;verticalAlign=middle;whiteSpace=wrap;rounded=0;" vertex="1" parent="1">
          <mxGeometry x="-30" y="-1000" width="110" height="51" as="geometry" />
        </mxCell>
        <mxCell id="N7wMIVFWoXXr4h1JqkPB-95" value="" style="shape=flexArrow;endArrow=classic;html=1;rounded=0;" edge="1" parent="1">
          <mxGeometry width="50" height="50" relative="1" as="geometry">
            <mxPoint x="100" y="-970" as="sourcePoint" />
            <mxPoint x="130" y="-970" as="targetPoint" />
          </mxGeometry>
        </mxCell>
        <mxCell id="N7wMIVFWoXXr4h1JqkPB-96" value="" style="endArrow=none;html=1;rounded=0;" edge="1" parent="1">
          <mxGeometry width="50" height="50" relative="1" as="geometry">
            <mxPoint x="340" y="-320" as="sourcePoint" />
            <mxPoint x="410" y="-320" as="targetPoint" />
          </mxGeometry>
        </mxCell>
        <mxCell id="N7wMIVFWoXXr4h1JqkPB-97" value="" style="endArrow=none;html=1;rounded=0;" edge="1" parent="1">
          <mxGeometry width="50" height="50" relative="1" as="geometry">
            <mxPoint x="339" y="-252" as="sourcePoint" />
            <mxPoint x="340" y="-320" as="targetPoint" />
          </mxGeometry>
        </mxCell>
        <mxCell id="N7wMIVFWoXXr4h1JqkPB-98" value="" style="endArrow=none;html=1;rounded=0;" edge="1" parent="1">
          <mxGeometry width="50" height="50" relative="1" as="geometry">
            <mxPoint x="410" y="-320" as="sourcePoint" />
            <mxPoint x="480" y="-320" as="targetPoint" />
          </mxGeometry>
        </mxCell>
        <mxCell id="N7wMIVFWoXXr4h1JqkPB-99" value="" style="endArrow=none;html=1;rounded=0;" edge="1" parent="1">
          <mxGeometry width="50" height="50" relative="1" as="geometry">
            <mxPoint x="480" y="-252" as="sourcePoint" />
            <mxPoint x="481" y="-320" as="targetPoint" />
          </mxGeometry>
        </mxCell>
      </root>
    </mxGraphModel>
  </diagram>
</mxfile>
